<mxfile host="app.diagrams.net" modified="2024-04-09T13:54:26.908Z" agent="Mozilla/5.0 (X11; Linux x86_64; rv:123.0) Gecko/20100101 Firefox/123.0" version="24.2.2" etag="0LPpxvvZsF8HOljjTVWW" type="github">
  <diagram name="Page-1" id="kMXpgJGQ8ijQ3styQqPs">
    <mxGraphModel>
      <root>
        <mxCell id="0" />
        <mxCell id="1" parent="0" />
      </root>
    </mxGraphModel>
  </diagram>
</mxfile>
